<svg xmlns="http://www.w3.org/2000/svg" viewBox="0 0 283.465 283.465" width="377.953" height="377.953" xmlns:v="https://vecta.io/nano"><defs><clipPath id="A"><path d="M0 0h283.465v283.465H0z"/></clipPath></defs><g clip-path="url(#A)"><linearGradient id="B" x1="23.179" y1="141.733" x2="260.285" y2="141.733" gradientUnits="userSpaceOnUse"><stop offset="0%" stop-color="#ffc800"/></linearGradient><path d="M55.131 87.08H27.048a3.87 3.87 0 0 0-3.869 3.868v40.751a3.87 3.87 0 0 0 3.869 3.868h28.083A3.87 3.87 0 0 1 59 139.435v41.332h.059c3.066 53.789 47.714 96.523 102.264 96.523 5.749 0 11.387-.475 16.879-1.387q-60.343-25.463-70.851-80.845c-.795-4.195-1.442-11.067-1.442-15.337V10.043a3.87 3.87 0 0 0-3.868-3.868H62.927c-2.135 0-3.869 1.733-3.871 3.868l-.054 73.169c-.001 2.135-1.736 3.868-3.871 3.868h0zm78.529 139.714c29.35 13.407 55.701 7.278 74.427-17.212 1.297-1.696 4.083-3.073 6.218-3.073h40.762c2.135 0 3.201 1.6 2.38 3.571-2.665 6.396-6.818 15.283-12.13 23.087-12.024 17.667-30.512 31.116-48.495 37.683q-43.351-9.363-63.162-44.056h0zm37.689-153.426c43.674 4.528 77.452 32.201 88.814 75.742.539 2.065-.756 3.784-2.89 3.835l-36.615.881c-2.134.051-4.63-1.464-5.571-3.38-10.555-21.519-29.536-34.085-55.28-34.267-17.935 1.014-31.083 7.036-41.461 19.503-1.365 1.641-2.474 1.24-2.474-.895V87.056c0-2.135 1.586-4.567 3.539-5.428 10.999-4.846 24.202-7.778 28.854-8.26 6.37-.66 16.714-.66 23.084 0z" fill-rule="evenodd" fill="url(#B)"/></g></svg>